<svg width="30" height="30" viewBox="0 0 30 30" fill="none" xmlns="http://www.w3.org/2000/svg">
<path d="M22.0835 2.73168C24.2202 3.96539 25.9977 5.73575 27.2399 7.86752C28.4821 9.99928 29.1461 12.4185 29.166 14.8857C29.1859 17.353 28.5612 19.7826 27.3535 21.9342C26.1459 24.0857 24.3973 25.8846 22.2808 27.1526C20.1643 28.4207 17.7533 29.114 15.2865 29.1639C12.8197 29.2139 10.3826 28.6187 8.21653 27.4373C6.05046 26.2559 4.23048 24.5293 2.93677 22.4283C1.64307 20.3274 0.920493 17.925 0.84058 15.459L0.833496 15L0.84058 14.541C0.919917 12.0944 1.63186 9.71012 2.90699 7.62058C4.18212 5.53105 5.97692 3.80757 8.11643 2.61818C10.2559 1.42879 12.6671 0.814072 15.1149 0.833964C17.5627 0.853855 19.9636 1.50767 22.0835 2.73168ZM20.2517 11.1651C20.0078 10.9212 19.6832 10.7746 19.339 10.753C18.9947 10.7314 18.6543 10.8361 18.3817 11.0475L18.2486 11.1651L13.5835 15.8288L11.7517 13.9984L11.6186 13.8808C11.346 13.6696 11.0057 13.565 10.6615 13.5867C10.3173 13.6084 9.99282 13.7549 9.74895 13.9988C9.50508 14.2427 9.35855 14.5671 9.33683 14.9113C9.31511 15.2555 9.41971 15.5958 9.631 15.8684L9.74858 16.0016L12.5819 18.8349L12.7151 18.9525C12.9635 19.1453 13.269 19.2499 13.5835 19.2499C13.898 19.2499 14.2035 19.1453 14.4519 18.9525L14.5851 18.8349L20.2517 13.1683L20.3693 13.0351C20.5808 12.7625 20.6855 12.4222 20.6638 12.0779C20.6422 11.7336 20.4957 11.409 20.2517 11.1651Z" fill="#DADADA"/>
</svg>
