<svg width="29" height="30" viewBox="0 0 29 30" fill="none" xmlns="http://www.w3.org/2000/svg">
<path d="M23.4719 0.833496C26.2486 0.833496 28.5152 3.01091 28.6597 5.75216L28.6668 6.02841V23.9719C28.6668 26.7486 26.4894 29.0152 23.7482 29.1597L23.4719 29.1668H5.52841C4.19841 29.1669 2.91904 28.6569 1.95389 27.7418C0.988728 26.8267 0.411305 25.5763 0.34058 24.2482L0.333496 23.9719V6.02841C0.333496 3.25175 2.51091 0.98508 5.25216 0.84058L5.52841 0.833496H23.4719ZM19.7517 11.1652C19.4861 10.8997 19.1258 10.7505 18.7502 10.7505C18.3745 10.7505 18.0142 10.8997 17.7486 11.1652L13.0835 15.8289L11.2517 13.9986L11.1186 13.881C10.8338 13.6608 10.476 13.5573 10.1177 13.5914C9.75936 13.6256 9.42748 13.7948 9.18943 14.0648C8.95138 14.3347 8.82502 14.6852 8.83601 15.045C8.84699 15.4047 8.9945 15.7468 9.24858 16.0017L12.0819 18.8351L12.2151 18.9527C12.4877 19.1641 12.828 19.2688 13.1723 19.2472C13.5166 19.2255 13.8411 19.079 14.0851 18.8351L19.7517 13.1684L19.8693 13.0352C20.0808 12.7627 20.1855 12.4223 20.1638 12.078C20.1422 11.7337 19.9957 11.4092 19.7517 11.1652Z" fill="#DADADA"/>
</svg>
