<svg width="30" height="16" viewBox="0 0 30 16" fill="none" xmlns="http://www.w3.org/2000/svg">
<path d="M29.6004 2.27715L15.9647 15.609C15.8381 15.733 15.6877 15.8313 15.5222 15.8984C15.3566 15.9655 15.1792 16 15 16C14.8208 16 14.6434 15.9655 14.4778 15.8984C14.3123 15.8313 14.1619 15.733 14.0353 15.609L0.399602 2.27715C0.143741 2.02699 0 1.6877 0 1.33393C0 0.980146 0.143741 0.640857 0.399602 0.390697C0.655462 0.140537 1.00248 0 1.36433 0C1.72617 0 2.07319 0.140537 2.32905 0.390697L15 12.781L27.6709 0.390697C27.7976 0.266831 27.948 0.168574 28.1136 0.101538C28.2791 0.0345024 28.4565 0 28.6357 0C28.8148 0 28.9923 0.0345024 29.1578 0.101538C29.3233 0.168574 29.4737 0.266831 29.6004 0.390697C29.7271 0.514563 29.8276 0.661615 29.8961 0.823454C29.9647 0.985293 30 1.15875 30 1.33393C30 1.5091 29.9647 1.68256 29.8961 1.8444C29.8276 2.00624 29.7271 2.15329 29.6004 2.27715Z" fill="#DADADA"/>
</svg>
