<svg width="25" height="24" viewBox="0 0 25 24" fill="none" xmlns="http://www.w3.org/2000/svg">
<path d="M18.6875 5.8125V5.82625M1.5 6.5C1.5 5.04131 2.07946 3.64236 3.11091 2.61091C4.14236 1.57946 5.54131 1 7 1H18C19.4587 1 20.8576 1.57946 21.8891 2.61091C22.9205 3.64236 23.5 5.04131 23.5 6.5V17.5C23.5 18.9587 22.9205 20.3576 21.8891 21.3891C20.8576 22.4205 19.4587 23 18 23H7C5.54131 23 4.14236 22.4205 3.11091 21.3891C2.07946 20.3576 1.5 18.9587 1.5 17.5V6.5ZM8.375 12C8.375 13.094 8.8096 14.1432 9.58318 14.9168C10.3568 15.6904 11.406 16.125 12.5 16.125C13.594 16.125 14.6432 15.6904 15.4168 14.9168C16.1904 14.1432 16.625 13.094 16.625 12C16.625 10.906 16.1904 9.85677 15.4168 9.08318C14.6432 8.3096 13.594 7.875 12.5 7.875C11.406 7.875 10.3568 8.3096 9.58318 9.08318C8.8096 9.85677 8.375 10.906 8.375 12Z" stroke="white" stroke-width="1.5" stroke-linecap="round" stroke-linejoin="round"/>
</svg>
