<svg width="20" height="20" viewBox="0 0 20 20" fill="none" xmlns="http://www.w3.org/2000/svg">
<path d="M14.5 2.2059L14.9965 1.34591L14.5 2.2059C15.8574 2.98967 16.9866 4.11438 17.7758 5.46867C18.565 6.82297 18.9868 8.3599 18.9995 9.92731C19.0121 11.4947 18.6152 13.0383 17.848 14.4051C17.0808 15.772 15.9699 16.9148 14.6253 17.7204C13.2807 18.526 11.749 18.9664 10.1819 18.9982C8.61472 19.0299 7.06647 18.6518 5.69037 17.9012C4.31428 17.1507 3.15806 16.0538 2.33618 14.7191C1.51573 13.3867 1.05686 11.8635 1.00475 10.2998L1.00012 9.99989L1.00475 9.70004C1.05648 8.14863 1.5086 6.63692 2.31725 5.3118C3.12733 3.98433 4.26756 2.88941 5.62678 2.1338C6.98599 1.37818 8.51781 0.98766 10.0729 1.0003C11.628 1.01293 13.1532 1.4283 14.5 2.2059Z" stroke="#DADADA" stroke-width="2" stroke-linecap="round" stroke-linejoin="round"/>
</svg>
