<svg width="40" height="20" viewBox="0 0 40 20" fill="none" xmlns="http://www.w3.org/2000/svg">
<path d="M39.4672 2.84644L21.2863 19.5112C21.1174 19.6662 20.9169 19.7891 20.6962 19.873C20.4755 19.9568 20.2389 20 20 20C19.7611 20 19.5245 19.9568 19.3038 19.873C19.0831 19.7891 18.8825 19.6662 18.7137 19.5112L0.532802 2.84644C0.191655 2.53374 0 2.10963 0 1.66741C0 1.22518 0.191655 0.801071 0.532802 0.488371C0.87395 0.175672 1.33665 0 1.8191 0C2.30156 0 2.76425 0.175672 3.1054 0.488371L20 15.9762L36.8946 0.488371C37.0635 0.333538 37.2641 0.210718 37.4848 0.126923C37.7055 0.043128 37.942 0 38.1809 0C38.4198 0 38.6563 0.043128 38.877 0.126923C39.0977 0.210718 39.2983 0.333538 39.4672 0.488371C39.6361 0.643204 39.7701 0.827018 39.8615 1.02932C39.9529 1.23162 40 1.44844 40 1.66741C40 1.88637 39.9529 2.1032 39.8615 2.3055C39.7701 2.5078 39.6361 2.69161 39.4672 2.84644Z" fill="#DADADA"/>
</svg>
