<svg width="23" height="22" viewBox="0 0 23 22" fill="none" xmlns="http://www.w3.org/2000/svg">
<path d="M19.7204 2.14172C19.1541 1.64224 16.8601 0.0365726 11.7515 0.0154936C11.7515 0.0154936 5.72332 -0.331852 2.78683 2.2627C1.15344 3.83538 0.581366 6.13849 0.515688 8.99515C0.45001 11.8518 0.376716 17.2059 5.73665 18.6612H5.74141L5.73665 20.8782C5.73665 20.8782 5.70143 21.7764 6.31443 21.9569C7.05498 22.1805 7.49283 21.4968 8.20197 20.7618C8.59033 20.3576 9.12527 19.7656 9.53172 19.3138C11.8609 19.5215 14.2099 19.3489 16.4794 18.8033L16.3366 18.8326C17.0771 18.6008 21.2672 18.0848 21.9449 12.7316C22.6531 7.20527 21.608 3.71898 19.7204 2.14172ZM20.3411 12.3284C19.7633 16.7962 16.3689 17.0803 15.7445 17.2728C14.3815 17.6064 12.8166 17.797 11.2051 17.797C10.7425 17.797 10.2837 17.7814 9.82965 17.7503L9.89057 17.7539C9.89057 17.7539 7.56993 20.4475 6.84747 21.1477C6.61141 21.3749 6.35155 21.3566 6.35631 20.903C6.35631 20.6069 6.3744 17.2205 6.3744 17.2205C1.83687 16.009 2.09959 11.4486 2.15289 9.06663C2.20619 6.68471 2.6707 4.72711 4.05376 3.41288C6.54002 1.24357 11.6582 1.56526 11.6582 1.56526C15.9825 1.58267 18.0528 2.83733 18.5344 3.25799C20.1278 4.57314 20.9398 7.71941 20.3411 12.3284ZM14.1435 8.85676V8.86959C14.1415 8.94096 14.1111 9.00886 14.0586 9.05929C14.0061 9.10971 13.9355 9.13881 13.8614 9.14057C13.7872 9.14234 13.7152 9.11664 13.6602 9.06877C13.6052 9.0209 13.5714 8.95452 13.5657 8.88334C13.5851 8.69199 13.5611 8.49796 13.4954 8.3164C13.4298 8.13484 13.324 7.96916 13.1853 7.8308C13.0467 7.69243 12.8785 7.58468 12.6924 7.51498C12.5063 7.44527 12.3068 7.41527 12.1075 7.42705H12.1113C12.0373 7.42154 11.9683 7.38887 11.9187 7.33581C11.869 7.28275 11.8424 7.21335 11.8443 7.14194C11.8463 7.07053 11.8767 7.00257 11.9292 6.9521C11.9817 6.90163 12.0523 6.87251 12.1265 6.87075H12.1427H12.1417L12.2074 6.86983C12.4731 6.86975 12.7361 6.92226 12.9799 7.02411C13.2236 7.12596 13.4431 7.27498 13.6245 7.4619C13.806 7.64882 13.9456 7.86967 14.0347 8.11072C14.1238 8.35178 14.1605 8.6079 14.1425 8.86318L14.1435 8.85676ZM15.0487 9.34341C15.0934 7.52145 13.9112 6.09541 11.6667 5.93594C11.6278 5.93477 11.5895 5.92604 11.5541 5.91027C11.5188 5.8945 11.4871 5.87201 11.461 5.84417C11.4349 5.81632 11.4149 5.78369 11.4022 5.74822C11.3895 5.71275 11.3844 5.67517 11.3871 5.63775C11.3899 5.60033 11.4005 5.56383 11.4182 5.53044C11.436 5.49705 11.4606 5.46746 11.4905 5.44344C11.5205 5.41942 11.5551 5.40147 11.5924 5.39067C11.6298 5.37986 11.6689 5.37642 11.7077 5.38056H11.7067H11.7229C12.2556 5.38054 12.7826 5.48536 13.2717 5.68857C13.7607 5.89179 14.2015 6.18912 14.5669 6.56229C14.9323 6.93547 15.2146 7.37662 15.3965 7.85865C15.5783 8.34069 15.656 8.85344 15.6246 9.36541L15.6255 9.35532C15.6204 9.42636 15.5873 9.49281 15.5329 9.54105C15.4785 9.58928 15.407 9.61564 15.333 9.6147C15.2591 9.61376 15.1883 9.5856 15.1353 9.536C15.0822 9.4864 15.0509 9.41913 15.0478 9.34799V9.34066L15.0487 9.34341ZM17.1428 9.91988V9.92171C17.139 9.99275 17.107 10.0597 17.0536 10.1088C17.0001 10.1579 16.9291 10.1854 16.8553 10.1858C16.7814 10.1861 16.7102 10.1593 16.6562 10.1107C16.6022 10.0621 16.5696 9.99546 16.565 9.92446C16.5422 6.42168 14.1159 4.51449 11.1756 4.49432C11.0991 4.49432 11.0257 4.46507 10.9716 4.41299C10.9176 4.36091 10.8872 4.29028 10.8872 4.21663C10.8872 4.14298 10.9176 4.07235 10.9716 4.02027C11.0257 3.96819 11.0991 3.93894 11.1756 3.93894C14.4681 3.96093 17.1142 6.14857 17.1409 9.91896L17.1428 9.91988ZM16.6431 14.1338V14.1421C16.1614 14.9587 15.26 15.8605 14.332 15.5727L14.3234 15.5599C12.6688 14.9736 11.1178 14.1455 9.72495 13.1046L9.76397 13.1321C9.07091 12.6023 8.44219 11.9988 7.88976 11.3331L7.87167 11.3102C7.37148 10.7039 6.92507 10.0583 6.53716 9.38007L6.49909 9.30767C6.04015 8.57917 5.65965 7.80747 5.36352 7.00456L5.33496 6.91474C5.03608 6.02118 5.96795 5.15327 6.82082 4.68953H6.82939C6.99717 4.58612 7.19866 4.54587 7.39533 4.57647C7.592 4.60707 7.77005 4.70638 7.89547 4.85542L7.89642 4.85725C7.89642 4.85725 8.44945 5.49237 8.68647 5.80672C8.9092 6.09908 9.20904 6.5674 9.36419 6.82859C9.48101 7.00707 9.52855 7.21956 9.49842 7.42851C9.46829 7.63747 9.36242 7.82944 9.19952 7.97053L9.19857 7.97144L8.66362 8.38386C8.58021 8.46137 8.51576 8.55577 8.47493 8.66023C8.4341 8.76469 8.41792 8.87659 8.42756 8.98782V8.98507C8.69244 9.83494 9.17051 10.609 9.81958 11.2389C10.4687 11.8688 11.2688 12.3352 12.1493 12.5969L12.1893 12.607C12.3043 12.6157 12.4198 12.6 12.5277 12.5608C12.6357 12.5217 12.7333 12.4602 12.8137 12.3806L13.2421 11.8656C13.3892 11.708 13.5896 11.6058 13.8076 11.5771C14.0257 11.5484 14.2472 11.5951 14.4329 11.7088L14.429 11.707C15.2029 12.1313 15.8721 12.5978 16.4822 13.1266L16.4717 13.1175C16.6265 13.2363 16.7295 13.4066 16.7605 13.5948C16.7915 13.7831 16.7483 13.9757 16.6393 14.1348L16.6412 14.132L16.6431 14.1338Z" fill="white"/>
</svg>
