<svg width="18" height="10" viewBox="0 0 18 10" fill="none" xmlns="http://www.w3.org/2000/svg">
<path d="M17.0301 9.28024C16.9604 9.34997 16.8777 9.40529 16.7866 9.44303C16.6956 9.48078 16.598 9.5002 16.4994 9.5002C16.4009 9.5002 16.3033 9.48078 16.2122 9.44303C16.1212 9.40529 16.0385 9.34997 15.9688 9.28024L8.99944 2.30993L2.03007 9.28024C1.88933 9.42097 1.69846 9.50003 1.49944 9.50003C1.30042 9.50003 1.10955 9.42097 0.968815 9.28024C0.828085 9.13951 0.749023 8.94864 0.749023 8.74961C0.749023 8.55059 0.828085 8.35972 0.968815 8.21899L8.46881 0.718988C8.53847 0.649256 8.62119 0.593937 8.71224 0.556194C8.80328 0.518451 8.90088 0.499023 8.99944 0.499023C9.098 0.499023 9.1956 0.518451 9.28665 0.556194C9.37769 0.593937 9.46041 0.649256 9.53007 0.718988L17.0301 8.21899C17.0998 8.28864 17.1551 8.37136 17.1929 8.46241C17.2306 8.55346 17.25 8.65105 17.25 8.74961C17.25 8.84818 17.2306 8.94577 17.1929 9.03682C17.1551 9.12787 17.0998 9.21058 17.0301 9.28024Z" fill="#DADADA"/>
</svg>
